# xmcd
#
# Track frame offsets: 
#        150
#        18922
#        33652
#        51689
#        63947
#        77792
#        92095
#        108353
#        126403
#        140772
#        154648
#        170139
#
# Disc length: 2445 seconds
#
# Revision: 0
# Processed by: cddbd v1.5.2PL0 Copyright (c) Steve Scherf et al.
# Submitted via: ExactAudioCopy v0.99pb4
#
DISCID=aa098b0c
DTITLE=Various Artist - Country Proud
DYEAR=1987
DGENRE=Corporate Country
TTITLE0=Gary Morris - The Wind Beneath My Wings
TTITLE1=Crystal Gayle - The Sound of Goodbye
TTITLE2=Alabama - Lady Down On Love
TTITLE3=John Conlee - Common Man
TTITLE4=Deborah Allen - I've Been Wrong Before
TTITLE5=Lee Greenwood - I.O.U.
TTITLE6=Sylvia - I Never Quite Got Back (From Loving You)
TTITLE7=Ronnie Milsap - Show Her
TTITLE8=George Strait - You Look So good In Love
TTITLE9=Don Williams - Stay Young
TTITLE10=Earl Thomas Conley - Don't Make It Easy For Me
TTITLE11=Jim Glaser - If I Could Only Dance With You
EXTD=
EXTT0=
EXTT1=
EXTT2=
EXTT3=
EXTT4=
EXTT5=
EXTT6=
EXTT7=
EXTT8=
EXTT9=
EXTT10=
EXTT11=
PLAYORDER=
